<?xml version="1.0" encoding="UTF-8"?>
<svg xmlns="http://www.w3.org/2000/svg" viewBox="0 0 44.000000 44.000000" width="100%" height="100%">
  <path d="M22,0.5A21.5,21.5 0,1 1,0.5 22,21.5 21.5,0 0,1 22,0.5Z" fill="none" stroke="#FFFFFF" stroke-width="1.000000"/>
  <path d="M11.2402,17.225C10.9199,16.91 10.9199,16.398 11.2402,16.083L16.1684,11.2369C16.4887,10.921 17.0143,10.921 17.3346,11.2369C17.655,11.5519 17.655,12.0639 17.3346,12.3789L13.8028,15.8463H25.7864C30.3203,15.8463 34,19.4623 34,23.9231C34,28.384 30.3203,32 25.7864,32H12.6447C12.193,32 11.8234,31.6382 11.8234,31.1923C11.8234,30.7465 12.193,30.3846 12.6447,30.3846H25.7864C29.4168,30.3846 32.3573,27.4915 32.3573,23.9231C32.3573,20.3548 29.4168,17.4617 25.7864,17.4617H13.8028L17.3346,20.9291C17.655,21.2441 17.655,21.7561 17.3346,22.0711C17.0143,22.3869 16.4887,22.3869 16.1684,22.0711L11.2402,17.225Z" fill="#FFFFFF" fill-rule="nonzero"/>
</svg>
