<?xml version="1.0" encoding="UTF-8"?>
<svg xmlns="http://www.w3.org/2000/svg" viewBox="0 0 30.000000 30.000000" width="100%" height="100%">
  <path d="M13.75,23.08V10.08h2.55v13h-2.55zM15.04,8.08c-0.44,0 -0.83,-0.15 -1.15,-0.44c-0.31,-0.3 -0.47,-0.65 -0.47,-1.07c0,-0.42 0.16,-0.77 0.47,-1.07c0.32,-0.29 0.71,-0.44 1.15,-0.44c0.44,0 0.83,0.15 1.15,0.44c0.31,0.3 0.47,0.65 0.47,1.07c0,0.42 -0.16,0.77 -0.47,1.07c-0.32,0.29 -0.71,0.44 -1.15,0.44z" fill="#FFFFFF" fill-rule="nonzero"/>
  <path d="M15,27.77C22.02,27.77 27.74,22.07 27.74,15C27.74,7.93 22.02,2.23 15,2.23C7.98,2.23 2.26,7.93 2.26,15C2.26,22.07 7.98,27.77 15,27.77ZM15,30C23.28,30 30,23.28 30,15C30,6.72 23.28,0 15,0C6.72,0 0,6.72 0,15C0,23.28 6.72,30 15,30Z" fill="#FFFFFF" fill-rule="evenodd"/>
</svg>
