<?xml version="1.0" encoding="UTF-8"?>
<svg xmlns="http://www.w3.org/2000/svg" viewBox="0 0 48 48" width="100%" height="100%">
  <circle cx="24" cy="24" r="22" fill="rgba(255,255,255,0.92)" stroke="#86DBFF" stroke-width="3"/>
  <path d="M18,12.339C18,11.6 18.556,11 19.241,11H20.897C21.582,11 22.138,11.6 22.138,12.339V34.661C22.138,35.4 21.582,36 20.897,36H19.241C18.556,36 18,35.4 18,34.661V12.339Z" fill="#112138"/>
  <path d="M25.862,12.339C25.862,11.6 26.418,11 27.103,11H28.759C29.444,11 30,11.6 30,12.339V34.661C30,35.4 29.444,36 28.759,36H27.103C26.418,36 25.862,35.4 25.862,34.661V12.339Z" fill="#112138"/>
</svg>
